<svg xmlns="http://www.w3.org/2000/svg" viewBox="0 0 12 8" width="12" height="8">
	<style>
		tspan { white-space:pre }
		.shp0 { fill: #ffffff } 
	</style>
	<g id="Genes">
		<g id="2">
			<g id="Group 14 copy 3">
				<g id="Genes">
					<path id="Check copy 4" class="shp0" d="M11.64,2.63c0.19,-0.17 0.31,-0.41 0.31,-0.68c0,-0.53 -0.48,-0.95 -1.06,-0.95c-0.29,0 -0.56,0.11 -0.75,0.28l-4.93,4.42l-2.44,-2.19c-0.19,-0.17 -0.46,-0.28 -0.75,-0.28c-0.59,0 -1.06,0.43 -1.06,0.96c0,0.26 0.12,0.5 0.31,0.67l3.19,2.87c0.19,0.17 0.46,0.28 0.75,0.28c0.29,0 0.56,-0.11 0.75,-0.28l5.68,-5.09" />
				</g>
			</g>
		</g>
	</g>
</svg>