<svg xmlns="http://www.w3.org/2000/svg" x="0px" y="0px" width="20" height="20" viewBox="0 0 224 224" style=" fill:#000000;">
    <g fill="none" fill-rule="nonzero" stroke="none" stroke-width="1" stroke-linecap="butt" stroke-linejoin="miter" stroke-miterlimit="10" stroke-dasharray="" stroke-dashoffset="0" font-family="none" font-weight="none" font-size="none" text-anchor="none" style="mix-blend-mode: normal">
        <path d="M0,224v-224h224v224z" fill="none">
        </path>
        <g fill="#597995">
            <path d="M108.42709,18.77604c-2.50548,0.09027 -5.00559,0.26877 -7.51042,0.5651c10.64,6.02933 21.58246,15.04081 32.11979,26.63281l25.52083,-14.7474c-15.19,-8.722 -32.59191,-13.08242 -50.1302,-12.45052zM74.79427,29.53125c-3.67121,-0.37348 -6.88027,0.14962 -9.46094,1.64063c-10.32267,5.964 -12.31096,28.24369 -4.26562,56.34635l55.17969,-31.86458c-15.232,-15.764 -30.4395,-25.00196 -41.45312,-26.1224zM175.10938,43.23958l-30.07813,17.35417c5.37601,7.18667 10.577,14.95025 15.45833,23.40625c4.88133,8.456 9.01368,16.85089 12.54167,25.10156l30.07813,-17.37239c-2.00667,-9.05333 -5.39992,-17.94917 -10.28125,-26.39583c-4.88133,-8.44667 -10.88675,-15.82175 -17.71875,-22.09375zM37.29688,56.07292c-12.068,16.16533 -18.46483,35.83417 -18.52083,55.85417l25.52083,-14.72918c-4.76933,-14.91466 -7.10267,-28.89833 -7,-41.125zM128.69791,70.03646l-61.39583,35.4375c3.35067,8.19467 7.43138,16.66204 12.35937,25.19271c4.928,8.53067 10.20863,16.30621 15.64063,23.29688l61.39582,-35.4375c-3.34133,-8.19467 -7.4407,-16.66204 -12.35937,-25.19271c-4.91867,-8.53067 -10.20862,-16.30621 -15.64063,-23.29688zM205.22396,112.05468l-25.52083,14.7474c4.76933,14.91467 7.10267,28.89833 7,41.125c12.068,-16.16533 18.47417,-35.8524 18.52083,-55.8724zM50.96875,114.89844l-30.07813,17.37239c2.00667,9.05333 5.39992,17.94917 10.28125,26.39583c4.88133,8.44667 10.88675,15.82175 17.71875,22.09375l30.07813,-17.35418c-5.376,-7.18666 -10.577,-14.95025 -15.45833,-23.40625c-4.88133,-8.456 -9.01367,-16.85089 -12.54167,-25.10156zM162.93229,136.48177l-55.17968,31.86458c20.31867,21.01867 40.60029,30.44577 50.93229,24.48177c10.332,-5.964 12.29273,-28.24368 4.24739,-56.34635zM90.96354,178.02604l-25.52083,14.74739c17.36,9.968 37.60196,14.25608 57.64062,11.88541c-10.64,-6.02933 -21.58246,-15.04081 -32.11979,-26.63281z">
            </path>
        </g>
    </g>
</svg>