<svg xmlns="http://www.w3.org/2000/svg" x="0px" y="0px" width="24" height="24" viewBox="0 0 224 224" style=" fill:#000000;">
    <g fill="none" fill-rule="nonzero" stroke="none" stroke-width="1" stroke-linecap="butt" stroke-linejoin="miter" stroke-miterlimit="10" stroke-dasharray="" stroke-dashoffset="0" font-family="none" font-weight="none" font-size="none" text-anchor="none" style="mix-blend-mode: normal">
        <path d="M0,224v-224h224v224z" fill="none"></path>
        <g fill="#597995">
            <path d="M112,18.66667c-51.548,0 -93.33333,41.78533 -93.33333,93.33333c0,51.548 41.78533,93.33333 93.33333,93.33333c51.548,0 93.33333,-41.78533 93.33333,-93.33333c0,-51.548 -41.78533,-93.33333 -93.33333,-93.33333zM95.66667,152.32933v0c-3.864,-3.864 -3.864,-10.136 0,-14l26.32933,-26.32933l-26.32933,-26.32933c-3.864,-3.864 -3.864,-10.136 0,-14v0c3.864,-3.864 10.136,-3.864 14,0l33.73067,33.73067c3.64933,3.64933 3.64933,9.55733 0,13.19733l-33.73067,33.73067c-3.864,3.864 -10.136,3.864 -14,0z">
            </path>
        </g>
    </g>
</svg>