<svg xmlns="http://www.w3.org/2000/svg" x="0px" y="0px" width="24" height="24" viewBox="0 0 224 224" style=" fill:#000000;">
    <g fill="none" fill-rule="nonzero" stroke="none" stroke-width="1" stroke-linecap="butt" stroke-linejoin="miter" stroke-miterlimit="10" stroke-dasharray="" stroke-dashoffset="0" font-family="none" font-weight="none" font-size="none" text-anchor="none" style="mix-blend-mode: normal">
        <path d="M0,224v-224h224v224z" fill="none">
        </path>
        <g fill="#000000">
            <path d="M46.66667,28c-10.31333,0 -18.66667,8.35333 -18.66667,18.66667v9.33333v9.33333v112c0,10.29467 8.372,18.66667 18.66667,18.66667h104.27083l-18.66667,-18.66667h-85.60417v-112h130.66667l-0.01823,66.9375l18.68489,18.66667v-85.60417v-9.33333v-9.33333c0,-10.31333 -8.35333,-18.66667 -18.66667,-18.66667zM65.33333,93.33333v18.66667h18.66667v-18.66667zM102.66667,93.33333v18.66667h56v-18.66667zM65.33333,130.66667v18.66667h18.66667v-18.66667zM102.66667,130.66667v18.66667h18.66667v-18.66667zM140,140v18.66667l48.03385,48.03385l18.66667,-18.66667l-48.03385,-48.03385zM213.29948,194.63282l-18.66667,18.66667l9.33333,9.33333c1.82,1.82 4.77896,1.82 6.59896,0l12.06771,-12.06771c1.82,-1.82933 1.82,-4.77896 0,-6.59896z">
            </path>
        </g>
    </g>
</svg>