<?xml version="1.0" standalone="no"?>
<!DOCTYPE svg PUBLIC "-//W3C//DTD SVG 20010904//EN"
 "http://www.w3.org/TR/2001/REC-SVG-20010904/DTD/svg10.dtd">
<svg version="1.0" xmlns="http://www.w3.org/2000/svg"
 width="140px" viewBox="0 0 119.000000 35.000000"
 preserveAspectRatio="xMidYMid meet">

<g transform="translate(0.000000,35.000000) scale(0.100000,-0.100000)"
fill="#000000" stroke="none">
<path d="M89 261 c-22 -17 -24 -29 -27 -115 -3 -61 0 -96 6 -96 6 0 13 10 15
23 l4 22 2 -22 c2 -43 21 -23 21 22 0 43 1 45 30 45 30 0 41 14 18 23 -8 3 -6
6 5 6 33 2 17 21 -19 21 -28 0 -35 3 -32 18 2 11 14 18 38 20 56 5 70 15 30
22 l-35 7 33 2 c52 2 37 21 -17 21 -33 0 -56 -6 -72 -19z m36 -11 c-3 -5 -11
-10 -16 -10 -6 0 -7 5 -4 10 3 6 11 10 16 10 6 0 7 -4 4 -10z m-38 -62 c-3 -8
-6 -5 -6 6 -1 11 2 17 5 13 3 -3 4 -12 1 -19z m0 -50 c-3 -8 -6 -5 -6 6 -1 11
2 17 5 13 3 -3 4 -12 1 -19z"/>
<path d="M257 220 c-24 -19 -27 -28 -27 -80 0 -51 3 -61 26 -79 34 -27 64 -27
98 0 22 17 26 28 26 72 0 61 -21 94 -65 103 -22 4 -38 0 -58 -16z m73 -10 c8
-5 11 -10 5 -10 -5 0 -17 5 -25 10 -8 5 -10 10 -5 10 6 0 17 -5 25 -10z m-70
-57 c-4 -42 -5 -44 -8 -15 -3 30 2 62 10 62 2 0 1 -21 -2 -47z m65 -13 c0 -39
-3 -45 -22 -48 -21 -3 -23 1 -23 41 0 48 6 59 30 55 11 -2 15 -16 15 -48z m35
-5 c0 -25 -3 -45 -8 -45 -4 0 -6 20 -4 45 2 25 6 45 8 45 2 0 4 -20 4 -45z
m-75 -65 c3 -5 1 -10 -4 -10 -6 0 -11 5 -11 10 0 6 2 10 4 10 3 0 8 -4 11 -10z
m50 0 c-3 -5 -12 -10 -18 -10 -7 0 -6 4 3 10 19 12 23 12 15 0z"/>
<path d="M445 215 c-27 -26 -27 -24 -29 -107 -1 -40 2 -58 10 -58 7 0 15 12
17 28 l4 27 2 -27 c2 -55 19 -26 19 34 0 48 4 65 18 76 14 11 16 16 6 19 -10
4 -8 9 5 19 17 13 17 13 -5 14 -13 0 -34 -11 -47 -25z m8 -35 c-5 -19 -23 -29
-23 -12 0 7 20 32 26 32 1 0 0 -9 -3 -20z m-3 -50 c0 -5 -4 -10 -10 -10 -5 0
-10 5 -10 10 0 6 5 10 10 10 6 0 10 -4 10 -10z"/>
<path d="M555 217 c-45 -38 -38 -152 10 -171 33 -12 66 -5 90 19 36 35 36 115
0 150 -30 31 -66 32 -100 2z m75 -7 c8 -5 11 -10 5 -10 -5 0 -17 5 -25 10 -8
5 -10 10 -5 10 6 0 17 -5 25 -10z m-63 -25 c-11 -23 -27 -34 -27 -18 0 6 30
43 36 43 1 0 -3 -11 -9 -25z m58 -45 c0 -35 -4 -45 -18 -48 -21 -4 -35 29 -29
70 4 23 9 28 26 26 18 -3 21 -10 21 -48z m32 18 c-3 -8 -6 -5 -6 6 -1 11 2 17
5 13 3 -3 4 -12 1 -19z m-70 -96 c-11 -5 -37 18 -37 34 0 9 8 5 23 -9 12 -12
18 -24 14 -25z m59 20 c-18 -16 -18 -16 -6 6 6 13 14 21 18 18 3 -4 -2 -14
-12 -24z"/>
<path d="M736 217 c-23 -23 -26 -34 -26 -97 0 -67 14 -95 23 -47 l4 22 2 -22
c0 -13 5 -23 11 -23 5 0 10 30 12 68 3 59 5 67 23 67 18 0 20 -8 23 -67 3 -64
4 -68 27 -68 22 0 24 4 27 61 2 46 8 65 21 73 25 16 37 -7 37 -75 0 -53 1 -56
25 -57 24 0 24 2 22 69 -3 57 -8 73 -28 95 -20 21 -30 25 -59 20 -51 -9 -52
-9 -87 -1 -26 6 -36 3 -57 -18z m43 0 c-2 -1 -13 -9 -24 -17 -19 -14 -19 -14
-6 3 7 9 18 17 24 17 6 0 8 -1 6 -3z m131 -1 c0 -2 -9 -6 -20 -9 -11 -3 -20
-1 -20 4 0 5 9 9 20 9 11 0 20 -2 20 -4z m-67 -19 c9 9 8 -9 -1 -24 -5 -8 -11
-3 -19 13 -10 21 -9 23 1 15 7 -6 16 -8 19 -4z m107 -42 c0 -14 -2 -25 -4 -25
-2 0 -6 11 -8 25 -3 14 -1 25 3 25 5 0 9 -11 9 -25z m-213 -32 c-3 -10 -5 -2
-5 17 0 19 2 27 5 18 2 -10 2 -26 0 -35z m100 -35 c-3 -7 -5 -2 -5 12 0 14 2
19 5 13 2 -7 2 -19 0 -25z"/>
<path d="M1027 220 c-24 -19 -27 -28 -27 -79 0 -70 25 -101 81 -101 37 0 73
18 52 26 -7 3 -10 11 -7 18 4 10 -5 13 -32 12 -20 0 -39 4 -40 9 -3 6 16 9 46
8 l50 -2 0 38 c0 74 -69 114 -123 71z m87 -19 c19 -21 18 -63 -2 -67 -7 -1 -8
0 -2 3 18 9 11 50 -12 66 -13 9 -18 16 -12 16 6 1 19 -8 28 -18z m-72 -3 c-5
-7 -12 -22 -15 -33 -5 -20 -5 -20 -6 1 0 11 4 25 11 32 16 16 23 15 10 0z m56
-25 c2 -8 -6 -13 -22 -13 -25 0 -33 10 -19 24 10 10 36 3 41 -11z m-54 -93
c10 -13 9 -13 -6 -1 -10 7 -18 21 -17 30 0 13 1 14 6 1 3 -8 11 -22 17 -30z
m59 -17 c-7 -2 -19 -2 -25 0 -7 3 -2 5 12 5 14 0 19 -2 13 -5z"/>
</g>
</svg>
