<svg xmlns="http://www.w3.org/2000/svg" viewBox="0 0 34 34" width="34" height="34">
	<style>
		tspan { white-space:pre }
		.shp0 { opacity: 0.302;fill-opacity: 0.89;fill: #11a9eb } 
		.shp1 { fill: #ffffff } 
	</style>
	<path id="Picture shape" class="shp0" d="M1,17.5c0,9.11 7.39,16.5 16.5,16.5c9.11,0 16.5,-7.39 16.5,-16.5c0,-9.11 -7.39,-16.5 -16.5,-16.5c-9.11,0 -16.5,7.39 -16.5,16.5z" />
	<path id="Shape 72" class="shp1" d="M22.1 19.24C21.09 18.73 19.19 18.34 19.19 17.39C19.19 16.45 21.25 15.66 21.25 11.57C21.25 9.67 19.37 8.82 17.48 8.82C15.59 8.82 13.36 9.67 13.36 11.57C13.36 15.66 15.42 16.45 15.42 17.39C15.42 18.34 13.67 18.73 12.65 19.24C10.76 20.19 10.38 20.48 9.94 21.17C9.94 21.91 9.94 23.91 9.94 23.91L25.02 23.91C25.02 23.91 25.02 21.91 25.02 21.17C24.58 20.48 23.99 20.19 22.1 19.24ZM23.99 22.88L10.96 22.88L10.96 21.51C11.25 21.19 11.52 20.86 13.07 20.08C13.29 19.98 13.56 19.87 13.85 19.75C15 19.29 16.45 18.75 16.45 17.39C16.45 16.78 16.1 16.28 15.78 15.85C15.26 15.13 14.39 14.02 14.39 11.57C14.39 10.07 16.5 9.85 17.48 9.85C18.46 9.85 20.22 10.07 20.22 11.57C20.22 14.02 19.5 15.13 18.97 15.85C18.65 16.28 18.16 16.78 18.16 17.39C18.16 18.75 19.76 19.29 20.91 19.75C21.2 19.87 21.47 19.98 21.68 20.08C23.23 20.86 23.71 21.12 23.99 21.44L23.99 22.88Z" />
</svg>